<svg width="30" height="34" xmlns="http://www.w3.org/2000/svg" fill="#fff" fill-rule="evenodd"><path d="M0 18.687C0 27.135 6.724 34 15 34s15-6.865 15-15.313c0-4.195-1.667-8.038-4.368-10.796L26.81 6.69l.546.557c.23.235.518.352.834.352.316 0 .603-.117.833-.352.46-.47.46-1.232 0-1.702l-2.73-2.786a1.162 1.162 0 0 0-1.667 0 1.22 1.22 0 0 0 0 1.701l.546.557-1.293 1.32a14.66 14.66 0 0 0-7.672-2.904V2.406h2.615c.66 0 1.178-.529 1.178-1.203C20 .528 19.483 0 18.822 0h-7.759c-.66 0-1.178.528-1.178 1.203 0 .674.517 1.203 1.178 1.203h2.788v1.026C6.092 4.048 0 10.65 0 18.687zM15 5.779c6.983 0 12.672 5.809 12.672 12.937 0 7.129-5.69 12.937-12.672 12.937-6.983 0-12.672-5.808-12.672-12.937C2.328 11.558 8.018 5.78 15 5.78zm0 13.905h5.029c.66 0 1.178-.528 1.178-1.203 0-.674-.517-1.202-1.178-1.202h-3.85v-6.19c0-.675-.518-1.203-1.179-1.203-.66 0-1.178.528-1.178 1.203v7.422A1.17 1.17 0 0 0 15 19.684z"/></svg>