<svg width="30" height="30" xmlns="http://www.w3.org/2000/svg" fill="#fff" fill-rule="evenodd"><path d="M3.935 13.395a.892.892 0 0 1 .883.977l-.001.018a.884.884 0 0 1-.884.802h-1.53A2.4 2.4 0 0 1 0 12.796v-10.4A2.4 2.4 0 0 1 2.403 0h10.438a2.4 2.4 0 0 1 2.403 2.396v1.519a.883.883 0 0 1-.804.88l-.018.002a.892.892 0 0 1-.98-.88V2.396a.598.598 0 0 0-.6-.6H2.402a.6.6 0 0 0-.6.6v10.4a.6.6 0 0 0 .6.599h1.532zm25.464 2.735a.6.6 0 0 1 .601.6V29.4a.6.6 0 0 1-.6.599H16.495a.6.6 0 0 1-.601-.599V16.73a.6.6 0 0 1 .6-.599H29.4zm-1.201 12.073V17.927h-10.5v10.276h10.5zm-7.03-14.92a6.253 6.253 0 0 0-6.594-4.223 6.243 6.243 0 0 0-5.55 5.516 6.233 6.233 0 0 0 4.213 6.588c.378.14.625.503.617.904a.912.912 0 0 1-1.216.898 8.229 8.229 0 0 1-5.248-9.544 7.947 7.947 0 0 1 5.24-5.772c4.238-1.372 8.804.846 10.332 5.019a.9.9 0 0 1-.863 1.248.97.97 0 0 1-.93-.634z"/></svg>