
<svg width="34px" height="34px" viewBox="703 13 34 34" version="1.1" xmlns="http://www.w3.org/2000/svg" xmlns:xlink="http://www.w3.org/1999/xlink">
    <path d="M725.003828,31.6192289 L721.453666,22.832269 C721.366029,22.1764117 720.93689,21.5867241 720.279027,21.32093 C720.027484,21.2193004 719.768007,21.1748087 719.514578,21.1812435 C719.273843,21.1802024 719.028774,21.2250918 718.791566,21.32093 C718.129473,21.588433 717.702818,22.1788861 717.616368,22.8336538 L714.066765,31.6192289 L712.680079,28.187061 C712.287317,27.2149395 711.181334,26.7508503 710.207328,27.1443744 C709.226531,27.5406421 708.761234,28.6427538 709.15289,29.6121378 L712.148396,37.0262742 C712.236033,37.6821315 712.665172,38.2718191 713.323035,38.5376132 C713.571381,38.6379513 713.827462,38.6825945 714.077819,38.6775203 C714.321612,38.6796329 714.570074,38.6347496 714.810495,38.5376132 C715.475806,38.2688099 715.903915,37.6752184 715.988242,37.0185831 L719.535297,28.2393143 L723.085459,37.0262742 C723.173096,37.6821315 723.602234,38.2718191 724.260098,38.5376132 C724.51164,38.6392428 724.771118,38.6837345 725.024547,38.6772997 C725.265281,38.6783408 725.51035,38.6334514 725.747558,38.5376132 C726.409651,38.2701102 726.836307,37.6796571 726.922757,37.0248894 L732.26796,23.7950463 C732.662724,22.8179714 732.190096,21.7144541 731.216089,21.32093 C730.235293,20.9246623 729.133845,21.3970769 728.740771,22.3699694 L725.003828,31.6192289 Z M720,47 C737,47 737,39.3888407 737,30 C737,20.6111593 737,13 720,13 C703,13 703,20.6111593 703,30 C703,39.3888407 703,47 720,47 Z M708.587413,24.8881119 C709.572256,24.8881119 710.370629,24.0897385 710.370629,23.1048951 C710.370629,22.1200517 709.572256,21.3216783 708.587413,21.3216783 C707.602569,21.3216783 706.804196,22.1200517 706.804196,23.1048951 C706.804196,24.0897385 707.602569,24.8881119 708.587413,24.8881119 Z" id="Combined-Shape" stroke="none" fill-opacity="0.203464674" fill="#323B43" fill-rule="evenodd"></path>
</svg>