<svg width="82" height="83" xmlns="http://www.w3.org/2000/svg"><g fill="none" fill-rule="evenodd"><path d="M41 82.18c41 0 41-18.396 41-41.09C82 18.397 82 0 41 0S0 18.397 0 41.09c0 22.694 0 41.09 41 41.09z" fill-opacity=".152" fill="#00D6B8"/><path d="M42 67.148c25 0 25-11.218 25-25.055 0-13.838 0-25.056-25-25.056S17 28.255 17 42.093c0 13.837 0 25.055 25 25.055z" stroke="#00D6B8" fill="#00D6B8"/><path d="M49.359 44.474l5.504-13.625a2.8 2.8 0 0 1 3.643-1.548 2.794 2.794 0 0 1 1.544 3.644l-7.854 19.44a2.799 2.799 0 0 1-2.87 2.494 2.793 2.793 0 0 1-2.806-2.5l-5.203-12.876L36.11 52.39a2.8 2.8 0 0 1-2.884 2.49 2.793 2.793 0 0 1-2.79-2.487l-4.393-10.874a2.796 2.796 0 0 1 1.549-3.635 2.79 2.79 0 0 1 3.638 1.539l2.043 5.055 5.207-12.887a2.799 2.799 0 0 1 2.87-2.494 2.793 2.793 0 0 1 2.806 2.5l5.203 12.877zm-24.142-9.916a2.625 2.625 0 0 1-2.623-2.628 2.625 2.625 0 0 1 2.623-2.628 2.625 2.625 0 0 1 2.622 2.628 2.625 2.625 0 0 1-2.622 2.628z" fill="#FFF"/></g></svg>