<?xml version="1.0" encoding="UTF-8"?>
<svg width="34px" height="34px" viewBox="0 0 34 34" version="1.1" xmlns="http://www.w3.org/2000/svg" xmlns:xlink="http://www.w3.org/1999/xlink">
    <!-- Generator: Sketch 46.2 (44496) - http://www.bohemiancoding.com/sketch -->
    <title>Artboard</title>
    <desc>Created with Sketch.</desc>
    <defs></defs>
    <g id="Page-1" stroke="none" stroke-width="1" fill="none" fill-rule="evenodd">
        <g id="Artboard" fill="#3E474D">
            <path d="M22.003828,18.6192289 L18.4536658,9.83226902 C18.3660288,9.17641174 17.9368901,8.58672414 17.2790265,8.32093002 C17.0274845,8.21930043 16.7680066,8.1748087 16.5145778,8.18124352 C16.2738435,8.18020244 16.0287744,8.22509181 15.7915665,8.32093002 C15.1294733,8.58843304 14.7028176,9.17888609 14.6163678,9.83365384 L11.066765,18.6192289 L9.6800792,15.187061 C9.28731661,14.2149395 8.18133415,13.7508503 7.20732782,14.1443744 C6.2265309,14.5406421 5.76123372,15.6427538 6.15289027,16.6121378 L9.14839581,24.0262742 C9.2360328,24.6821315 9.66517151,25.2718191 10.323035,25.5376132 C10.5713806,25.6379513 10.8274615,25.6825945 11.0778193,25.6775203 C11.3216115,25.6796329 11.5700739,25.6347496 11.8104951,25.5376132 C12.4758064,25.2688099 12.9039148,24.6752184 12.9882417,24.0185831 L16.5352965,15.2393143 L20.0854587,24.0262742 C20.1730957,24.6821315 20.6022344,25.2718191 21.260098,25.5376132 C21.51164,25.6392428 21.7711179,25.6837345 22.0245467,25.6772997 C22.265281,25.6783408 22.5103501,25.6334514 22.747558,25.5376132 C23.4096512,25.2701102 23.8363069,24.6796571 23.9227567,24.0248894 L29.2679603,10.7950463 C29.6627242,9.81797139 29.1900958,8.71445412 28.2160895,8.32093002 C27.2352926,7.92466235 26.1338455,8.39707687 25.7407714,9.36996945 L22.003828,18.6192289 Z M17,34 C-1.3211654e-14,34 0,26.3888407 0,17 C0,7.61115925 -1.3211654e-14,2.08189956e-15 17,0 C34,-2.08189949e-15 34,7.61115925 34,17 C34,26.3888407 34,34 17,34 Z M5.58741259,11.8881119 C6.57225602,11.8881119 7.37062937,11.0897385 7.37062937,10.1048951 C7.37062937,9.12005167 6.57225602,8.32167832 5.58741259,8.32167832 C4.60256915,8.32167832 3.8041958,9.12005167 3.8041958,10.1048951 C3.8041958,11.0897385 4.60256915,11.8881119 5.58741259,11.8881119 Z" id="Combined-Shape"></path>
        </g>
    </g>
</svg>